<svg width="257" height="112" viewBox="0 0 257 112" xmlns="http://www.w3.org/2000/svg"><g fill="#004582" stroke="#0073CF"><path d="M50.34 20.732v5.113H36.304v-5.113zM39.231 42.55V19.624q0-2.529.951-4.198.952-1.669 2.642-2.5 1.69-.83 3.907-.83 1.448 0 2.734.22 1.285.22 1.91.39l-1.108 5.085q-.383-.127-.93-.213-.547-.085-1.03-.085-1.221 0-1.676.54-.454.54-.454 1.477v23.04zM63.166 42.962q-3.423 0-5.902-1.357-2.478-1.356-3.807-3.877-1.328-2.522-1.328-6.002 0-3.38 1.335-5.916 1.336-2.536 3.765-3.949 2.429-1.413 5.724-1.413 2.33 0 4.261.724 1.932.725 3.339 2.145 1.406 1.42 2.187 3.501.781 2.081.781 4.766v1.733H54.558v-4.034h12.5q-.014-1.108-.525-1.974-.512-.867-1.4-1.357-.887-.49-2.038-.49-1.165 0-2.088.518-.923.519-1.463 1.407-.54.887-.568 2.01v4.105q0 1.335.525 2.336.526 1.002 1.492 1.556t2.301.554q.923 0 1.676-.256.753-.256 1.293-.753.54-.497.81-1.221l6.377.184q-.397 2.145-1.74 3.729-1.342 1.584-3.515 2.457-2.174.874-5.029.874zM87.286 42.962q-3.424 0-5.902-1.357-2.48-1.356-3.807-3.877-1.328-2.522-1.328-6.002 0-3.38 1.335-5.916 1.335-2.536 3.764-3.949 2.429-1.413 5.724-1.413 2.33 0 4.262.724 1.932.725 3.338 2.145 1.406 1.42 2.187 3.501.782 2.081.782 4.766v1.733H78.678v-4.034h12.5q-.015-1.108-.526-1.974-.511-.867-1.4-1.357-.887-.49-2.038-.49-1.164 0-2.088.518-.923.519-1.463 1.407-.54.887-.568 2.01v4.105q0 1.335.526 2.336.525 1.002 1.491 1.556.966.554 2.301.554.924 0 1.676-.256.753-.256 1.293-.753.54-.497.81-1.221l6.378.184q-.398 2.145-1.74 3.729-1.343 1.584-3.516 2.457-2.173.874-5.028.874zM109.175 42.862q-2.415 0-4.39-1.25-1.974-1.25-3.153-3.75t-1.179-6.207q0-3.85 1.222-6.335 1.221-2.486 3.203-3.68 1.981-1.192 4.268-1.192 1.72 0 2.94.59 1.222.589 2.018 1.512.795.923 1.207 1.918h.142V13.459h6.946V42.55h-6.875v-3.537h-.213q-.44 1.009-1.25 1.89-.81.88-2.024 1.42-1.215.54-2.862.54zm2.414-5.411q1.265 0 2.16-.718.894-.717 1.377-2.024t.483-3.068q0-1.79-.475-3.082-.476-1.293-1.378-1.99-.902-.695-2.167-.695-1.292 0-2.187.71-.895.71-1.357 2.003-.461 1.293-.461 3.054t.469 3.068q.468 1.307 1.356 2.024.888.718 2.18.718zM126.803 42.55V13.46h6.946v11.008h.142q.426-.995 1.214-1.918.788-.923 2.017-1.513 1.229-.59 2.948-.59 2.272 0 4.254 1.194 1.981 1.193 3.203 3.679 1.222 2.486 1.222 6.335 0 3.707-1.172 6.207t-3.154 3.75q-1.981 1.25-4.396 1.25-1.648 0-2.855-.54-1.208-.539-2.024-1.42-.817-.88-1.257-1.889h-.213v3.537zm6.804-10.91q0 1.762.475 3.07.476 1.306 1.378 2.023.902.718 2.166.718 1.279 0 2.174-.718.895-.717 1.356-2.024.462-1.307.462-3.068 0-1.761-.462-3.054-.461-1.293-1.35-2.003-.887-.71-2.18-.71-1.278 0-2.173.696t-1.37 1.989q-.476 1.292-.476 3.082zM158.55 42.92q-2.088 0-3.7-.704-1.613-.703-2.543-2.13-.93-1.428-.93-3.587 0-1.818.639-3.068t1.761-2.032q1.122-.78 2.585-1.186 1.463-.404 3.125-.547 1.861-.17 2.997-.362 1.137-.192 1.655-.554.519-.362.519-1.03v-.07q0-1.094-.753-1.69-.753-.598-2.031-.598-1.378 0-2.216.597-.838.597-1.066 1.648l-6.406-.227q.284-1.99 1.47-3.559 1.186-1.57 3.267-2.471 2.081-.902 5.007-.902 2.088 0 3.85.49 1.761.49 3.068 1.42 1.307.93 2.024 2.28.717 1.35.717 3.082v14.83h-6.534v-3.04h-.17q-.582 1.108-1.484 1.875-.902.767-2.117 1.15-1.214.384-2.734.384zm2.145-4.546q1.122 0 2.024-.455.902-.454 1.442-1.257.54-.802.54-1.868V32.72q-.299.157-.718.285-.42.127-.916.241-.497.114-1.023.199-.526.085-1.008.156-.98.156-1.67.483-.688.327-1.05.845-.363.519-.363 1.229 0 1.08.774 1.648.774.568 1.968.568zM186.007 42.962q-3.452 0-5.916-1.42-2.465-1.421-3.786-3.956-1.32-2.536-1.32-5.874 0-3.352 1.327-5.888 1.329-2.535 3.793-3.956 2.465-1.42 5.888-1.42 3.025 0 5.277 1.093 2.251 1.094 3.523 3.09 1.27 1.996 1.342 4.68h-6.492q-.198-1.676-1.129-2.627-.93-.952-2.422-.952-1.207 0-2.116.675-.91.674-1.414 1.988-.504 1.314-.504 3.246t.504 3.26q.505 1.328 1.414 2.003.909.674 2.116.674.966 0 1.712-.412.746-.411 1.229-1.214.483-.803.61-1.953h6.492q-.1 2.699-1.342 4.716-1.243 2.017-3.48 3.132-2.238 1.115-5.306 1.115zM205.964 36.826l.029-8.282h.966l6.136-7.812h7.87l-9.12 11.193h-1.832zM199.7 42.55V13.46h6.946v29.09zm13.551 0l-5.71-9.063 4.574-4.928 9.162 13.991z" stroke-width=".0142"/></g></svg>