<svg width="235" height="56" viewBox="0 0 235 56" xmlns="http://www.w3.org/2000/svg"><g fill="#174582" stroke="#0073CF"><path d="M43.764 23.999h-7.102q-.142-1.094-.582-1.975-.44-.88-1.165-1.505-.725-.625-1.712-.96-.987-.333-2.18-.333-2.117 0-3.644 1.037-1.527 1.037-2.343 2.997-.817 1.96-.817 4.745 0 2.897.83 4.85.832 1.954 2.344 2.94 1.513.988 3.587.988 1.165 0 2.124-.298.958-.299 1.69-.874t1.207-1.406q.476-.831.66-1.882l7.103.042q-.184 1.932-1.115 3.807-.93 1.875-2.55 3.416-1.619 1.542-3.941 2.45-2.323.91-5.32.91-3.949 0-7.067-1.74-3.118-1.74-4.922-5.078-1.804-3.339-1.804-8.125 0-4.802 1.833-8.14 1.832-3.338 4.957-5.07 3.125-1.734 7.003-1.734 2.642 0 4.886.732 2.245.731 3.95 2.13 1.704 1.4 2.77 3.431 1.065 2.031 1.32 4.645zM57.969 42.962q-3.424 0-5.902-1.357-2.479-1.356-3.807-3.877-1.328-2.522-1.328-6.002 0-3.38 1.335-5.916 1.335-2.536 3.764-3.949 2.43-1.413 5.725-1.413 2.33 0 4.261.724 1.932.725 3.338 2.145 1.406 1.42 2.188 3.501.78 2.081.78 4.766v1.733H49.362v-4.034h12.5q-.014-1.108-.526-1.974-.511-.867-1.399-1.357t-2.038-.49q-1.165 0-2.088.518-.924.519-1.463 1.407-.54.887-.569 2.01v4.105q0 1.335.526 2.336.526 1.002 1.491 1.556.966.554 2.302.554.923 0 1.676-.256.753-.256 1.292-.753.54-.497.81-1.221l6.378.184q-.398 2.145-1.74 3.729-1.343 1.584-3.516 2.457-2.173.874-5.028.874zM78.835 30.107V42.55H71.89V20.732h6.605v4.005h.242q.724-2.002 2.471-3.146 1.748-1.143 4.162-1.143 2.301 0 3.999 1.03 1.697 1.03 2.642 2.869.945 1.84.93 4.297V42.55h-6.946V30.007q.015-1.818-.916-2.84-.93-1.023-2.578-1.023-1.094 0-1.925.476-.83.475-1.278 1.356-.448.88-.462 2.13zM109.574 20.732v5.113H95.81v-5.113zm-10.88-5.227h6.945v20.184q0 .64.206 1.03t.604.554q.398.163.952.163.397 0 .845-.078.447-.078.674-.135l1.052 5.015q-.498.142-1.4.355-.902.213-2.152.27-2.443.113-4.183-.576-1.74-.689-2.656-2.152-.916-1.463-.888-3.679zM113.125 42.55V20.732h6.747v3.977h.227q.597-2.159 1.946-3.217 1.35-1.058 3.14-1.058.483 0 .994.063.511.064.952.192v6.037q-.497-.17-1.3-.27t-1.428-.1q-1.235 0-2.223.548-.987.547-1.548 1.52t-.561 2.28V42.55zM135.298 42.92q-2.088 0-3.7-.704-1.612-.703-2.543-2.13-.93-1.428-.93-3.587 0-1.818.64-3.068.638-1.25 1.76-2.032 1.123-.78 2.586-1.186 1.463-.404 3.125-.547 1.86-.17 2.997-.362 1.136-.192 1.655-.554.518-.362.518-1.03v-.07q0-1.094-.753-1.69-.752-.598-2.03-.598-1.379 0-2.217.597-.838.597-1.065 1.648l-6.406-.227q.284-1.99 1.47-3.559 1.186-1.57 3.267-2.471 2.08-.902 5.007-.902 2.088 0 3.85.49 1.76.49 3.068 1.42 1.306.93 2.024 2.28.717 1.35.717 3.082v14.83h-6.534v-3.04h-.17q-.583 1.108-1.485 1.875-.902.767-2.116 1.15-1.215.384-2.735.384zm2.145-4.546q1.122 0 2.024-.455.902-.454 1.442-1.257.54-.802.54-1.868V32.72q-.298.157-.717.285-.42.127-.917.241-.497.114-1.022.199-.526.085-1.009.156-.98.156-1.669.483-.689.327-1.051.845-.362.519-.362 1.229 0 1.08.774 1.648.774.568 1.967.568zM159.517 13.46v29.09h-6.946V13.46zM163.92 42.55V20.732h6.946V42.55zm3.48-24.36q-1.463 0-2.514-.974-1.05-.973-1.05-2.35 0-1.364 1.05-2.337 1.051-.973 2.515-.973 1.477 0 2.52.973 1.045.973 1.045 2.336 0 1.378-1.044 2.351-1.044.973-2.521.973zM175.327 42.55v-3.963l10.113-12.315v-.142h-9.758v-5.398h18.04v4.346l-9.375 11.932v.142h9.715v5.398zM208.125 42.962q-3.423 0-5.902-1.357-2.479-1.356-3.807-3.877-1.328-2.522-1.328-6.002 0-3.38 1.335-5.916 1.336-2.536 3.765-3.949 2.428-1.413 5.724-1.413 2.33 0 4.261.724 1.932.725 3.338 2.145 1.407 1.42 2.188 3.501.781 2.081.781 4.766v1.733h-18.963v-4.034h12.5q-.014-1.108-.526-1.974-.51-.867-1.399-1.357-.887-.49-2.038-.49-1.165 0-2.088.518-.923.519-1.463 1.407-.54.887-.568 2.01v4.105q0 1.335.525 2.336.526 1.002 1.492 1.556t2.3.554q.924 0 1.677-.256t1.293-.753q.54-.497.81-1.221l6.377.184q-.398 2.145-1.74 3.729t-3.516 2.457q-2.173.874-5.028.874z" stroke-width=".0142"/></g></svg>