<svg width="224" height="80" viewBox="0 0 224 80" xmlns="http://www.w3.org/2000/svg"><g fill="url(#n0_i0)" stroke="#0073CF"><path d="M69.074 34.55V5.46h7.898v11.363h10.454V5.459h7.898V34.55h-7.898V23.186H76.972V34.55zM109.699 34.948q-3.551 0-6.08-1.414-2.528-1.413-3.878-3.948-1.349-2.536-1.349-5.888 0-3.353 1.35-5.888 1.349-2.536 3.877-3.949 2.529-1.413 6.08-1.413t6.08 1.413q2.528 1.413 3.877 3.949 1.35 2.535 1.35 5.888 0 3.352-1.35 5.888-1.35 2.535-3.878 3.948-2.528 1.414-6.08 1.414zm.057-5.796q.994 0 1.718-.667.725-.668 1.123-1.904.397-1.236.397-2.94 0-1.719-.397-2.948-.398-1.228-1.123-1.896-.724-.667-1.718-.667-1.051 0-1.804.667-.753.668-1.15 1.896-.399 1.23-.399 2.948 0 1.704.398 2.94t1.15 1.904q.754.667 1.805.667zM127.653 34.55L122.2 12.732h7.84l2.5 13.295h.171l2.784-13.295h7.614l2.898 13.182h.17l2.386-13.182h7.841L150.95 34.55h-8.466l-3.068-11.705h-.228L136.12 34.55z" stroke-width=".0142"/></g><g fill="url(#n0_i0)" stroke="#0073CF"><path d="M44.017 59.834h-7.216q-.057-.668-.469-1.15-.412-.483-1.058-.746-.646-.263-1.427-.263-1.009 0-1.733.37-.725.369-.71 1.05-.015.483.418.895.434.412 1.684.64l4.431.795q3.353.61 4.993 2.053 1.641 1.441 1.655 3.856-.014 2.33-1.385 4.041-1.37 1.712-3.736 2.642-2.365.93-5.39.93-5 0-7.82-2.045-2.82-2.045-3.146-5.397h7.784q.156 1.036 1.03 1.598.873.56 2.209.56 1.08 0 1.782-.369.703-.369.718-1.05-.015-.626-.618-.995-.604-.37-1.882-.597l-3.864-.682q-3.338-.582-5-2.215-1.662-1.634-1.648-4.205-.014-2.273 1.2-3.857 1.215-1.583 3.48-2.414 2.266-.831 5.377-.831 4.73 0 7.465 1.96 2.734 1.96 2.876 5.426zM58.108 74.948q-3.551 0-6.08-1.414-2.528-1.413-3.877-3.948-1.35-2.536-1.35-5.888 0-3.353 1.35-5.888 1.349-2.536 3.877-3.949 2.529-1.413 6.08-1.413t6.08 1.413q2.528 1.413 3.877 3.949 1.35 2.535 1.35 5.888 0 3.352-1.35 5.888-1.35 2.535-3.878 3.948-2.528 1.414-6.079 1.414zm.057-5.796q.994 0 1.719-.667.724-.668 1.122-1.904.397-1.236.397-2.94 0-1.719-.397-2.948-.398-1.228-1.122-1.896-.725-.667-1.72-.667-1.05 0-1.803.667-.753.668-1.15 1.896-.399 1.23-.399 2.948 0 1.704.398 2.94t1.15 1.904q.754.667 1.805.667zM85.665 52.732v5.682H71.062v-5.682zM73.847 74.55V52.107q0-2.699.966-4.475.965-1.775 2.727-2.656 1.761-.88 4.148-.88 1.491 0 2.904.227 1.414.227 2.096.397l-1.137 5.625q-.426-.127-.994-.206-.568-.078-.995-.078-1.107 0-1.491.47-.384.468-.384 1.235V74.55zM101.688 52.732v5.682H87.311v-5.682zm-11.591-5.227h7.84v20.028q0 .454.157.76.156.305.483.454.326.15.838.15.355 0 .83-.086.477-.085.704-.142l1.136 5.512q-.525.156-1.498.383t-2.309.299q-2.698.142-4.53-.562-1.833-.703-2.757-2.223-.923-1.52-.894-3.806zM108.733 74.55l-5.455-21.818h7.841l2.5 13.295h.17l2.785-13.295h7.614l2.897 13.182h.17l2.387-13.182h7.841l-5.455 21.818h-8.466l-3.068-11.705h-.227l-3.068 11.705zM145.949 74.89q-2.088 0-3.686-.688-1.598-.689-2.507-2.095-.91-1.406-.91-3.58 0-1.79.611-3.06.611-1.272 1.705-2.082 1.094-.81 2.55-1.236 1.456-.426 3.146-.554 1.832-.142 2.947-.348t1.613-.582q.497-.376.497-1.001v-.057q0-.852-.654-1.307-.653-.455-1.676-.455-1.122 0-1.825.49-.703.49-.845 1.5h-7.216q.142-1.99 1.271-3.673 1.13-1.683 3.303-2.699 2.173-1.015 5.426-1.015 2.344 0 4.204.547 1.861.546 3.168 1.52 1.307.973 1.996 2.272.689 1.3.689 2.82V74.55h-7.33v-3.068h-.17q-.654 1.221-1.584 1.974-.93.753-2.117 1.094-1.186.34-2.606.34zm2.557-4.942q.895 0 1.683-.37.788-.369 1.285-1.065.498-.696.498-1.69v-1.818q-.313.127-.66.241-.349.114-.74.213-.39.1-.823.185-.434.085-.902.156-.91.142-1.485.462-.575.32-.852.78-.277.463-.277 1.03 0 .91.64 1.393.638.483 1.633.483zM163.506 74.55V52.732h7.613v4.148h.228q.596-2.302 1.896-3.367 1.3-1.065 3.047-1.065.511 0 1.015.078.505.078.973.22v6.69q-.582-.198-1.434-.298-.853-.1-1.463-.1-1.15 0-2.067.52-.916.518-1.442 1.448-.525.93-.525 2.18V74.55zM190.04 74.948q-3.495 0-6.016-1.343-2.521-1.342-3.878-3.863-1.356-2.522-1.356-6.044 0-3.381 1.363-5.91 1.364-2.528 3.85-3.934 2.486-1.406 5.866-1.406 2.472 0 4.475.767 2.003.767 3.423 2.223t2.188 3.53q.767 2.073.767 4.673v1.818h-19.489v-4.318h12.273q-.015-.938-.476-1.655-.462-.717-1.236-1.122-.774-.405-1.754-.405-.952 0-1.747.405-.796.405-1.272 1.115t-.504 1.662V65.8q0 1.051.44 1.875.44.824 1.265 1.293.823.468 1.988.468.81 0 1.485-.227.674-.227 1.157-.66.483-.434.71-1.044h7.16q-.37 2.272-1.748 3.941-1.377 1.67-3.643 2.586-2.266.916-5.291.916z" stroke-width=".0142"/></g><defs><linearGradient id="n0_i0" x1=".15" y1=".85" x2=".85" y2=".15"><stop offset="0%" stop-color="#0073CF"/><stop offset="100%" stop-color="#A85D74"/></linearGradient></defs></svg>