<svg width="132.67" height="30" viewBox="0 0 132.67 30" xmlns="http://www.w3.org/2000/svg"><g fill="#fff" stroke="#0073CF"><path d="M4.904 22.28V7.045h3.22v12.58h6.532v2.655zM22.939 22.503q-1.763 0-3.032-.718-1.268-.718-1.952-2.038-.685-1.32-.685-3.128 0-1.763.685-3.095.684-1.331 1.93-2.075 1.246-.744 2.927-.744 1.131 0 2.11.36.977.362 1.71 1.083.733.722 1.142 1.812.41 1.09.41 2.547v.87h-9.65v-1.963H25.2q0-.684-.297-1.213-.298-.528-.822-.83-.525-.3-1.217-.3-.721 0-1.275.33-.555.332-.867.886-.312.554-.32 1.231v1.867q0 .848.316 1.466.316.617.897.952.58.335 1.376.335.528 0 .967-.15.439-.148.751-.446.313-.297.476-.729l2.931.194q-.223 1.056-.911 1.841-.688.785-1.77 1.22-1.083.435-2.496.435zM34.51 22.496q-1.094 0-1.95-.383-.855-.383-1.35-1.139-.494-.755-.494-1.885 0-.952.35-1.6.349-.647.951-1.041.603-.394 1.373-.595.77-.201 1.618-.283.997-.104 1.607-.197.61-.093.885-.279.275-.186.275-.55v-.045q0-.707-.443-1.094-.442-.386-1.253-.386-.855 0-1.361.375-.506.376-.67.941l-2.93-.238q.222-1.041.877-1.804.655-.762 1.692-1.175 1.038-.413 2.407-.413.952 0 1.826.223.874.223 1.555.692.68.469 1.075 1.201.394.733.394 1.752v7.707H37.94v-1.584h-.09q-.275.535-.736.94-.461.406-1.108.633-.648.227-1.496.227zm.907-2.187q.7 0 1.235-.28.535-.278.84-.754.305-.476.305-1.079v-1.212q-.148.096-.405.174-.257.078-.577.142-.32.063-.64.111-.32.049-.58.086-.557.082-.974.26-.417.179-.647.48-.23.301-.23.748 0 .647.472.985.472.339 1.201.339zM44.406 22.28V10.854h3.073v1.993h.119q.312-1.063 1.049-1.61.736-.547 1.696-.547.238 0 .513.03t.483.082v2.812q-.223-.067-.617-.12-.394-.051-.722-.051-.699 0-1.246.3-.546.302-.863.838-.316.535-.316 1.235v6.464zM57.137 15.674v6.606H53.97V10.854h3.02v2.016h.134q.379-.997 1.272-1.581.892-.584 2.164-.584 1.19 0 2.076.52.885.522 1.376 1.485.491.963.491 2.295v7.275h-3.169v-6.71q.007-1.049-.536-1.64-.543-.592-1.495-.592-.64 0-1.127.276-.487.275-.759.8-.271.524-.279 1.26zM73.852 22.28V10.854h3.02v2.016h.134q.357-1.004 1.19-1.585.833-.58 1.994-.58 1.175 0 2 .584.826.584 1.102 1.58h.119q.35-.981 1.268-1.573.919-.59 2.176-.59 1.6 0 2.6 1.014 1 1.016 1 2.876v7.684h-3.161v-7.06q0-.952-.506-1.428t-1.265-.476q-.863 0-1.346.547-.484.547-.484 1.44v6.977h-3.072v-7.126q0-.841-.48-1.34-.48-.498-1.26-.498-.529 0-.95.264-.42.264-.665.737-.245.472-.245 1.104v6.859zM99.117 22.503q-1.733 0-2.994-.74-1.26-.74-1.945-2.068-.684-1.328-.684-3.083 0-1.77.684-3.099.684-1.328 1.945-2.068 1.261-.74 2.994-.74 1.734 0 2.994.74 1.261.74 1.946 2.068.684 1.328.684 3.099 0 1.755-.684 3.083-.685 1.328-1.946 2.068-1.26.74-2.994.74zm.015-2.455q.789 0 1.317-.45.528-.45.8-1.23.271-.782.271-1.779 0-.997-.271-1.778-.272-.78-.8-1.235-.528-.453-1.317-.453-.796 0-1.335.453-.54.454-.81 1.235-.272.781-.272 1.778t.271 1.778q.272.781.81 1.231.54.45 1.336.45zM107.81 22.28V10.854h3.071v1.993h.12q.312-1.063 1.048-1.61.737-.547 1.696-.547.238 0 .514.03.275.03.483.082v2.812q-.223-.067-.617-.12-.394-.051-.722-.051-.7 0-1.246.3-.547.302-.863.838-.316.535-.316 1.235v6.464zM122.043 22.503q-1.763 0-3.031-.718-1.269-.718-1.953-2.038-.684-1.32-.684-3.128 0-1.763.684-3.095.684-1.331 1.93-2.075 1.246-.744 2.927-.744 1.131 0 2.11.36.978.362 1.71 1.083.733.722 1.142 1.812.41 1.09.41 2.547v.87h-9.649v-1.963h6.665q0-.684-.297-1.213-.298-.528-.822-.83-.525-.3-1.216-.3-.722 0-1.276.33-.554.332-.867.886-.312.554-.32 1.231v1.867q0 .848.316 1.466.317.617.897.952.58.335 1.376.335.528 0 .967-.15.439-.148.751-.446.313-.297.476-.729l2.931.194q-.223 1.056-.91 1.841-.689.785-1.771 1.22-1.083.435-2.496.435z" stroke-width=".00744"/></g></svg>