<svg width="100%" height="100%" viewBox="0 0 217 82" fill="none" xmlns="http://www.w3.org/2000/svg" preserveAspectRatio="none"><g clip-path="url(#clip0_1122_10211)"><path d="M24.19 62.1601L20.26 79.2001C20.15 79.6901 19.7 80.0401 19.2 80.0401L1.08 79.9501C0.729999 79.9501 0.409999 79.7801 0.209999 79.5001C0.00999863 79.2201 -0.0500014 78.8601 0.0599986 78.5301L23.95 5.54008C23.95 5.54008 24.34 4.17008 26.05 3.86008C31.34 2.90008 39.71 1.57008 45.61 0.520077C46.89 0.290077 47.48 1.51008 47.48 1.51008L71.18 79.0401C71.26 79.2901 71.21 79.5701 71.05 79.7801C70.89 79.9901 70.64 80.1201 70.37 80.1201L59.8 80.0301C57 80.0301 51.53 80.2001 49.39 80.2801C48.87 80.3001 48.41 79.9401 48.3 79.4301L44.44 62.1701H24.19V62.1601ZM40.91 47.2101C39.43 41.0701 37.04 30.2301 34.89 20.8401C33.4 27.3501 29.75 40.8301 28.04 47.2101H40.92H40.91Z" fill="#0073CF" data-color-group="0"/><path d="M94.98 29.2401C107.96 20.2901 118.76 22.2801 124.06 27.5801C130.49 34.1901 126.73 42.8101 128.93 78.9001C128.95 79.2001 128.84 79.5001 128.63 79.7201C128.42 79.9401 128.13 80.0601 127.82 80.0501C125.89 80.0001 122.11 79.9201 120.22 79.9201C117.06 79.9201 110.92 80.1801 108.38 80.2901C108.08 80.3001 107.79 80.1901 107.58 79.9901C107.37 79.7801 107.25 79.5001 107.25 79.2001C107.51 43.7601 107.76 39.0001 101.33 39.0001C99.15 39.0001 97.18 39.9401 95.31 40.8701C95.41 59.2001 95.67 64.3901 96.27 79.1701C96.27 79.4001 96.19 79.6301 96.03 79.8001C95.87 79.9701 95.65 80.0701 95.41 80.0701L75.02 80.3301C74.79 80.3301 74.56 80.2401 74.4 80.0801C74.23 79.9201 74.14 79.6901 74.15 79.4601C74.62 26.5501 74.24 15.6201 72.63 4.55007C72.49 3.55007 73.49 3.44007 73.49 3.44007C82.51 2.10007 83.37 1.97007 93.86 6.69607e-05C93.86 6.69607e-05 94.98 -0.0299331 94.98 1.18007V29.2401Z" fill="#0073CF" data-color-group="0"/><path d="M164.35 74.4099C160.62 77.1999 153.1 81.0599 147.19 81.0599C137.89 81.0599 131.95 74.3499 131.95 64.0599C131.95 48.2999 150.33 43.7699 163.62 42.0099C163.83 39.4099 163.93 36.6099 157.18 36.6099C150.43 36.6099 144.95 38.6499 139.27 40.9099C138.93 41.0499 138.54 40.9999 138.24 40.7799C137.94 40.5699 137.77 40.2099 137.79 39.8399L138.4 27.7399C138.42 27.2799 138.73 26.8899 139.17 26.7599C151.02 23.1699 171.22 20.3499 179.82 28.1899C185.03 32.9399 184.78 38.9899 184.6 49.1699C184.34 63.8599 184.55 67.9299 185.41 78.8799C185.43 79.1799 185.33 79.4699 185.13 79.6899C184.93 79.9099 184.64 80.0399 184.34 80.0499L165.47 80.3299C165.18 80.3299 164.9 80.2199 164.69 80.0199C164.48 79.8199 164.37 79.5399 164.36 79.2499L164.34 74.3999L164.35 74.4099ZM164.04 53.3299C159.16 53.7499 151.79 54.2699 151.79 60.5999C151.79 66.0699 157.83 67.9099 164.04 64.0299V53.3299Z" fill="#0073CF" data-color-group="0"/><path d="M197.85 53.76C197.26 53.77 196.77 53.31 196.74 52.72C195.55 25.07 195.25 22.04 193.69 4.78C193.64 4.22 194.03 3.71 194.59 3.61L214.88 0.189997C215.21 0.129997 215.55 0.239997 215.8 0.469997C216.05 0.699997 216.17 1.03 216.14 1.37C214.95 13.8 213.63 37.23 213.38 52.38C213.38 52.96 212.9 53.43 212.32 53.45L197.85 53.77V53.76Z" fill="#0073CF" data-color-group="0"/><path d="M214.67 78.98C214.68 79.28 214.57 79.58 214.35 79.79C214.14 80 213.84 80.12 213.54 80.11C206.28 79.82 201.61 79.85 195.39 80.28C195.09 80.3 194.79 80.19 194.57 79.98C194.35 79.77 194.23 79.48 194.23 79.17C194.34 73.32 194.37 67.06 194.31 63.44C194.31 63.13 194.43 62.84 194.65 62.63C194.87 62.42 195.17 62.32 195.48 62.34C200.54 62.74 209.61 62.61 213.66 62.17C213.97 62.14 214.29 62.24 214.52 62.46C214.75 62.68 214.88 62.98 214.86 63.3C214.6 69.37 214.5 74.61 214.66 78.98H214.67Z" fill="#0073CF" data-color-group="0"/></g><defs><clipPath id="clip0_1122_10211"><rect width="216.14" height="81.06" fill="white" data-color-group="1"/></clipPath></defs></svg>