<svg width="100%" height="100%" viewBox="0 0 65 35" fill="none" xmlns="http://www.w3.org/2000/svg" preserveAspectRatio="none"><path d="M58.1477 1.60571C60.9404 1.60571 63.2119 3.89514 63.2119 6.61417V17.699C63.2119 20.5127 60.9404 22.7075 58.1477 22.7075L31.5141 22.7075L18.5688 32.499V22.7075H6.75228C3.95958 22.7075 1.68807 20.418 1.68807 17.699V6.61415C1.68807 3.80048 3.95958 1.60569 6.75228 1.60569L58.1477 1.60571ZM58.1477 1.97799e-05L6.75228 0C3.03325 0 0 3.05718 0 6.70985V17.7947C0 21.5431 3.03325 24.5046 6.75228 24.5046H16.8807V33.4347C16.8807 34.4683 17.5981 35 18.2628 35C18.5127 35 18.7677 34.9207 18.9958 34.753L32.1733 24.7913L58.2477 24.7914C61.9667 24.7914 65 21.7342 65 18.0815V6.70987C64.9 3.0572 61.9564 1.97799e-05 58.1477 1.97799e-05Z" fill="#5CA5E0" data-color-group="0"/></svg>