<svg width="179.231" height="56" viewBox="0 0 179.231 56" xmlns="http://www.w3.org/2000/svg"><g fill="url(#n0_i0)" stroke="#0073CF"><path d="M28.138 42.55V20.732h7.841V42.55zm3.935-24.09q-1.605 0-2.742-1.052-1.136-1.051-1.136-2.528 0-1.478 1.136-2.529Q30.468 11.3 32.06 11.3q1.605 0 2.734 1.051 1.13 1.051 1.13 2.529 0 1.477-1.13 2.528t-2.72 1.051zM59.9 27.834h-7.216q-.057-.668-.47-1.15-.411-.483-1.057-.746-.647-.263-1.428-.263-1.009 0-1.733.37-.724.369-.71 1.05-.014.483.419.895.433.412 1.683.64l4.432.795q3.352.61 4.993 2.053 1.64 1.441 1.655 3.856-.015 2.33-1.385 4.041-1.371 1.712-3.736 2.642-2.365.93-5.39.93-5 0-7.82-2.045-2.82-2.045-3.147-5.397h7.784q.157 1.036 1.03 1.598.874.56 2.21.56 1.079 0 1.782-.369.703-.369.717-1.05-.014-.626-.618-.995-.603-.37-1.882-.597l-3.864-.682q-3.338-.582-5-2.215-1.661-1.634-1.647-4.205-.014-2.273 1.2-3.857 1.215-1.583 3.48-2.414 2.266-.831 5.377-.831 4.73 0 7.464 1.96t2.876 5.426zM71.32 42.55V13.46h7.84v11.079h.114q.427-1.108 1.25-2.039.824-.93 2.046-1.491t2.84-.561q2.16 0 4.113 1.15 1.953 1.15 3.182 3.622 1.229 2.472 1.229 6.42 0 3.78-1.172 6.265-1.172 2.486-3.125 3.707-1.953 1.222-4.283 1.222-1.534 0-2.734-.504t-2.046-1.378q-.845-.874-1.3-1.982h-.17v3.58zm7.67-10.91q0 1.592.42 2.75.418 1.157 1.193 1.79.774.631 1.853.631 1.08 0 1.84-.618.76-.617 1.165-1.775.404-1.158.404-2.777 0-1.62-.404-2.777-.405-1.158-1.165-1.776-.76-.618-1.84-.618t-1.853.618q-.775.618-1.194 1.776-.419 1.158-.419 2.777zM111.377 33.005V20.732h7.84V42.55h-7.443v-4.148h-.227q-.71 2.088-2.486 3.26-1.775 1.172-4.218 1.172-2.287 0-3.999-1.051-1.712-1.051-2.656-2.898-.945-1.846-.959-4.233v-13.92h7.84v12.273q.015 1.619.832 2.542.817.923 2.294.923.98 0 1.697-.419.718-.419 1.108-1.193.391-.774.377-1.853zM123.195 42.55V20.732h7.84V42.55zm3.935-24.09q-1.606 0-2.742-1.052-1.136-1.051-1.136-2.528 0-1.478 1.136-2.529t2.727-1.051q1.605 0 2.735 1.051 1.129 1.051 1.129 2.529 0 1.477-1.13 2.528-1.129 1.051-2.72 1.051zM142.854 13.46v29.09h-7.84V13.46zM159.843 20.732v5.682h-14.375v-5.682zm-11.591-5.227h7.84v20.028q0 .454.157.76.156.305.483.454.327.15.838.15.355 0 .83-.086.477-.085.704-.142l1.136 5.512q-.525.156-1.498.383t-2.308.298q-2.7.143-4.532-.56-1.832-.704-2.755-2.224-.924-1.52-.895-3.806z" stroke-width=".0142"/></g><defs><linearGradient id="n0_i0" x1=".15" y1=".85" x2=".85" y2=".15"><stop offset="0%" stop-color="#0073CF"/><stop offset="100%" stop-color="#A85D74"/></linearGradient></defs></svg>