<svg width="257" height="112" viewBox="0 0 257 112" xmlns="http://www.w3.org/2000/svg"><g fill="#004582" stroke="#0073CF"><path d="M52.278 50.732v-30h6.875v3.736h.213q.427-.995 1.215-1.918.788-.923 2.017-1.513 1.229-.59 2.947-.59 2.273 0 4.255 1.194 1.981 1.193 3.203 3.679 1.221 2.486 1.221 6.335 0 3.708-1.171 6.208-1.172 2.5-3.154 3.75-1.981 1.25-4.396 1.25-1.648 0-2.855-.54-1.208-.54-2.024-1.42-.817-.881-1.258-1.89h-.142v11.719zm6.804-19.091q0 1.761.476 3.068.476 1.307 1.378 2.024.902.718 2.166.718 1.279 0 2.174-.718.894-.717 1.356-2.024.462-1.307.462-3.068 0-1.761-.462-3.054t-1.35-2.003q-.887-.71-2.18-.71-1.278 0-2.173.696t-1.37 1.989q-.477 1.292-.477 3.082zM77.875 42.55V20.732h6.747v3.977h.227q.597-2.159 1.946-3.217 1.35-1.058 3.14-1.058.483 0 .994.063.511.064.952.192v6.037q-.497-.17-1.3-.27t-1.428-.1q-1.235 0-2.223.548-.987.547-1.548 1.52t-.561 2.28V42.55zM103.77 42.962q-3.438 0-5.902-1.413-2.465-1.414-3.793-3.95-1.328-2.535-1.328-5.887 0-3.367 1.328-5.902 1.328-2.536 3.793-3.949 2.464-1.413 5.902-1.413 3.437 0 5.902 1.413 2.464 1.413 3.792 3.949 1.329 2.535 1.329 5.902 0 3.352-1.329 5.888-1.328 2.535-3.792 3.949-2.465 1.413-5.902 1.413zm.043-5.242q1.25 0 2.116-.767.866-.767 1.328-2.13.462-1.364.462-3.154 0-1.818-.462-3.182-.462-1.363-1.328-2.13-.867-.767-2.117-.767-1.292 0-2.18.767-.888.767-1.35 2.13-.461 1.364-.461 3.182 0 1.79.462 3.154.461 1.363 1.35 2.13.887.767 2.18.767zM126.327 42.862q-2.415 0-4.39-1.25-1.974-1.25-3.153-3.75t-1.179-6.207q0-3.85 1.222-6.335 1.221-2.486 3.203-3.68 1.981-1.192 4.268-1.192 1.719 0 2.94.59 1.222.589 2.018 1.512.795.923 1.207 1.918h.142V13.459h6.946V42.55h-6.875v-3.537h-.213q-.44 1.009-1.25 1.89-.81.88-2.024 1.42-1.215.54-2.862.54zm2.414-5.411q1.265 0 2.16-.718.894-.717 1.377-2.024t.483-3.068q0-1.79-.475-3.082-.476-1.293-1.378-1.99-.902-.695-2.167-.695-1.292 0-2.187.71-.895.71-1.357 2.003-.461 1.293-.461 3.054t.469 3.068q.468 1.307 1.356 2.024.888.718 2.18.718zM158.031 33.132v-12.4h6.932V42.55h-6.62v-4.063h-.227q-.724 2.003-2.464 3.175-1.74 1.172-4.197 1.172-2.23 0-3.92-1.023-1.691-1.022-2.629-2.862-.937-1.84-.951-4.31V20.731h6.946v12.542q.014 1.776.937 2.799.923 1.022 2.514 1.022 1.037 0 1.868-.461.831-.462 1.321-1.35.49-.887.49-2.152zM179.565 42.962q-3.451 0-5.916-1.42-2.464-1.421-3.785-3.956-1.321-2.536-1.321-5.874 0-3.352 1.328-5.888 1.328-2.535 3.792-3.956 2.465-1.42 5.888-1.42 3.026 0 5.277 1.093 2.252 1.094 3.523 3.09 1.271 1.996 1.342 4.68h-6.491q-.2-1.676-1.13-2.627-.93-.952-2.421-.952-1.208 0-2.117.675-.909.674-1.413 1.988-.505 1.314-.505 3.246t.505 3.26q.504 1.328 1.413 2.003.91.674 2.117.674.965 0 1.711-.412.746-.411 1.229-1.214.483-.803.61-1.953h6.492q-.1 2.699-1.342 4.716-1.243 2.017-3.48 3.132-2.237 1.115-5.306 1.115zM205.574 20.732v5.113H191.81v-5.113zm-10.88-5.227h6.945v20.184q0 .64.206 1.03t.604.554q.398.163.952.163.397 0 .845-.078.447-.078.674-.135l1.052 5.015q-.498.142-1.4.355-.902.213-2.152.27-2.443.113-4.183-.576-1.74-.689-2.656-2.152-.916-1.463-.888-3.679z" stroke-width=".0142"/></g></svg>