<svg xmlns="http://www.w3.org/2000/svg" width="24" height="24.021" viewBox="0 0 24 24.021">
                    <path id="Path_1" data-name="Path 1" d="M18.9,17.776c.021.024.043.053.07.079,1.579,1.568,3.162,3.13,4.732,4.707a.766.766,0,0,1,.164,1.045.8.8,0,0,1-.964.361,1.169,1.169,0,0,1-.393-.274c-.8-.795-1.6-1.6-2.394-2.4s-1.577-1.581-2.364-2.37a10.447,10.447,0,0,1-8.5,2.505A10.4,10.4,0,0,1,2.3,17.39,10.7,10.7,0,0,1,3.371,2.969a10.631,10.631,0,0,1,14.281-.426A10.562,10.562,0,0,1,21.434,9.9,10.616,10.616,0,0,1,18.9,17.776Zm.951-6.98a7.479,7.479,0,0,0-.238-2.165,8.573,8.573,0,0,0-.728-1.994,9.07,9.07,0,0,0-2.058-2.7,9.347,9.347,0,0,0-2-1.349A9.052,9.052,0,0,0,13.2,1.971a7.688,7.688,0,0,0-1-.211,13.5,13.5,0,0,0-2.008-.077,7.359,7.359,0,0,0-1.906.291A8.91,8.91,0,0,0,2.871,6.22a9.236,9.236,0,0,0-1.2,4.166A9.026,9.026,0,0,0,2.1,13.613a8.752,8.752,0,0,0,2.612,3.97,8.9,8.9,0,0,0,5.411,2.274,9.092,9.092,0,0,0,3.521-.434,9,9,0,0,0,3.187-1.835,8.891,8.891,0,0,0,2.654-4.249,8.7,8.7,0,0,0,.357-2.543Z" transform="translate(0 0.006)" fill="#fff"/>
                  </svg>