<?xml version="1.0" encoding="UTF-8"?>
<svg id="Layer_1" data-name="Layer 1" xmlns="http://www.w3.org/2000/svg" viewBox="0 0 233.38 233.58">
  <defs>
    <style>
      .cls-1 {
        fill: #fff;
      }
    </style>
  </defs>
  <path class="cls-1" d="m183.76,172.9c.2.23.42.52.68.77,15.35,15.25,30.75,30.44,46.01,45.77,3.4,3.42,3.71,6.6,1.59,10.16-1.93,3.24-5.77,4.82-9.37,3.51-1.41-.52-2.73-1.58-3.82-2.66-7.8-7.73-15.53-15.54-23.28-23.32-7.66-7.69-15.33-15.37-22.99-23.05-24.02,20.29-51.77,28.72-82.7,24.36-27.53-3.88-50.34-17.17-67.56-39.29C-10.91,126.48-6.72,66.63,32.78,28.92c38.91-37.15,98.89-38.5,138.87-4.14,21.84,18.77,34.36,42.7,36.78,71.57,2.43,28.87-6.36,54.22-24.67,76.55Zm9.25-67.87c.51-6.41-.65-13.78-2.31-21.05-1.54-6.73-3.92-13.21-7.08-19.39-5.09-9.97-11.63-18.79-20.01-26.23-5.91-5.25-12.45-9.56-19.49-13.12-5.04-2.55-10.35-4.48-15.78-6.02-3.18-.9-6.45-1.58-9.73-2.05-6.47-.93-13.01-.79-19.53-.75-6.32.04-12.49,1.17-18.53,2.83-7.58,2.08-14.77,5.16-21.54,9.22-13.21,7.93-23.48,18.7-31.09,32.06-7.15,12.55-10.91,26.09-11.64,40.51-.55,10.72.94,21.2,4.19,31.38,4.85,15.22,13.42,28.05,25.4,38.6,15.08,13.28,32.58,20.75,52.62,22.11,11.67.79,23.1-.51,34.24-4.22,11.54-3.84,21.92-9.74,30.99-17.84,12.58-11.24,21.12-25.08,25.81-41.32,2.23-7.72,3.53-15.56,3.47-24.73Z"/>
</svg>